# AST/ASF file generated using VICON BodyLanguage
# -----------------------------------------------
:version 1.10
:name VICON
:units
  mass 1.0
  length 0.45
  angle deg
:documentation
   .ast/.asf automatically generated from VICON data using
   VICON BodyBuilder and BodyLanguage model FoxedUp or BRILLIANT.MOD
:root
   order TX TY TZ RX RY RZ
   axis XYZ
   position 0 0 0  
   orientation 0 0 0 
:bonedata
  begin
     id 1 
     name lhipjoint
     direction 0.650112 -0.723553 0.232005 
     length 2.45805 
     axis 0 0 0  XYZ
  end
  begin
     id 2 
     name lfemur
     direction 0.34202 -0.939693 0  
     length 7.00073  
     axis 0 0 20  XYZ
    dof rx ry rz
    limits (-160.0 20.0)
           (-70.0 70.0)
           (-60.0 70.0)
  end
  begin
     id 3 
     name ltibia
     direction 0.34202 -0.939693 0   
     length 7.8748   
     axis 0 0 20   XYZ
    dof rx
    limits (-10.0 170.0)
  end
  begin
     id 4 
     name lfoot
     direction 0.0542825 -0.14914 0.987325   
     length 1.75978   
     axis -90 7.62852e-016 20   XYZ
    dof rx rz
    limits (-45.0 90.0)
           (-70.0 20.0)
  end
  begin
     id 5 
     name ltoes
     direction 1.53509e-011 -4.21906e-011 1   
     length 0.893912   
     axis -90 7.62852e-016 20   XYZ
    dof rx
    limits (-90.0 20.0)
  end
  begin
     id 6 
     name rhipjoint
     direction -0.637897 -0.733345 0.235145   
     length 2.42522  
     axis 0 0 0  XYZ 
  end
  begin
     id 7 
     name rfemur
     direction -0.34202 -0.939693 0   
     length 7.02549   
     axis 0 0 -20   XYZ
    dof rx ry rz
    limits (-160.0 20.0)
           (-70.0 70.0)
           (-70.0 60.0)
  end
  begin
     id 8 
     name rtibia
     direction -0.34202 -0.939693 0   
     length 7.71512   
     axis 0 0 -20   XYZ
    dof rx
    limits (-10.0 170.0)
 end
 begin
     id 9 
     name rfoot
     direction -0.0822618 -0.226012 0.970645   
     length 1.90014  
     axis -90 -7.62852e-016 -20   XYZ
    dof rx rz
    limits (-45.0 90.0)
           (-20.0 70.0)
  end
  begin
     id 10 
     name rtoes
     direction -1.53542e-011 -4.21872e-011 1   
     length 0.957341   
     axis -90 -7.62852e-016 -20   XYZ
    dof rx
    limits (-90.0 20.0)
  end
  begin
     id 11 
     name lowerback
     direction -0.0022947 0.999774 -0.0211557   
     length 1.89909   
     axis 0 0 0   XYZ
    dof rx ry rz
    limits (-20.0 45.0)
           (-30.0 30.0)
           (-30.0 30.0)
  end
  begin
     id 12 
     name upperback
     direction 0.0107737 0.998635 0.0511027   
     length 1.8853   
     axis 0 0 0   XYZ
    dof rx ry rz
    limits (-20.0 45.0)
           (-30.0 30.0)
           (-30.0 30.0)
  end
  begin
     id 13 
     name thorax
     direction 0.011824 0.998136 0.0598754   
     length 1.88911   
     axis 0 0 0   XYZ
    dof rx ry rz
    limits (-20.0 45.0)
           (-30.0 30.0)
           (-30.0 30.0)
  end
  begin
     id 14 
     name lowerneck
     direction -0.0685355 0.990319 0.120714   
     length 1.91222   
     axis 0 0 0   XYZ
    dof rx ry rz
    limits (-20.0 45.0)
           (-30.0 30.0)
           (-30.0 30.0)
  end
  begin
     id 15 
     name upperneck
     direction 0.0886204 0.955665 -0.280805   
     length 1.92526   
     axis 0 0 0   XYZ
    dof rx ry rz
    limits (-20.0 45.0)
           (-30.0 30.0)
           (-30.0 30.0)
  end
  begin
     id 16
     name head
     direction 0.0233423 0.993502 -0.111393  
     length 1.96056  
     axis 0 0 0   XYZ
    dof rx ry rz
    limits (-20.0 45.0)
           (-30.0 30.0)
           (-30.0 30.0)
  end
  begin
     id 17 
     name lclavicle
     direction 0.941873 0.32922 0.0670041  
     length 3.31705  
     axis 0 0 0   XYZ
    dof ry rz
    limits (-20.0 10.0)
           (0.0 20.0)
  end
  begin
     id 18 
     name lhumerus
     direction 1 -4.4898e-011 3.38707e-028   
     length 5.29277   
     axis 180 -30 -90   XYZ
    dof rx ry rz
    limits (-60.0 90.0)
           (-90.0 90.0)
           (-90.0 90.0)
  end
  begin
     id 19
     name lradius
     direction 1 -4.48952e-011 1.63213e-028   
     length 2.85226   
     axis 180 -30 -90   XYZ
    dof rx
    limits (-10.0 170.0)
  end
  begin
     id 20
     name lwrist
     direction 1 -4.49001e-011 1.27856e-027   
     length 1.42613   
     axis -1.61767e-015 90 90   XYZ
    dof ry
    limits (-180.0 0.0)
 end
  begin
     id 21 
     name lhand
     direction 1 -4.48976e-011 2.55931e-027   
     length 0.602097   
     axis -1.63363e-015 90 90   XYZ
    dof rx rz
    limits (-90.0 90.0)
           (-45.0 45.0)
  end
  begin
     id 22 
     name lfingers
     direction 1 -4.48986e-011 5.11684e-027   
     length 0.485426   
     axis -3.26723e-015 90 90   XYZ
    dof rx
    limits (0.0 90.0)
  end
  begin
     id 23
     name lthumb
     direction 0.707107 -6.34915e-011 0.707107   
     length 0.696978   
     axis -90 45 -2.25915e-014   XYZ
    dof rx rz
    limits (-45.0 45.0)
           (-45.0 45.0)
  end
  begin
     id 24 
     name rclavicle
     direction -0.939974 0.327078 0.0973096   
     length 3.10337  
     axis 0 0 0   XYZ 
    dof ry rz
    limits (-10.0 20.0)
           (-20.0 0.0)
  end
  begin
     id 25 
     name rhumerus
     direction -1 -4.48975e-011 1.83745e-027  
     length 5.13304   
     axis 180 30 90   XYZ
    dof rx ry rz
    limits (-90.0 60.0)
           (-90.0 90.0)
           (-90.0 90.0)
  end
  begin
     id 26 
     name rradius
     direction -1 -4.48977e-011 7.1775e-029   
     length 2.74305   
     axis 180 30 90   XYZ
    dof rx
    limits (-10.0 170.0)
  end
  begin
     id 27 
     name rwrist
     direction -1 -4.48977e-011 1.27963e-027   
     length 1.37152   
     axis -1.61767e-015 -90 -90   XYZ
    dof ry
    limits (-180.0 0.0)
  end
  begin
     id 28
     name rhand
     direction -1 -4.4888e-011 2.56782e-027   
     length 0.767976   
     axis -1.63363e-015 -90 -90   XYZ
    dof rx rz
    limits (-90.0 90.0)
           (-45.0 45.0)
  end
  begin
     id 29
     name rfingers
     direction -1 -4.48947e-011 5.12384e-027   
     length 0.619162   
     axis -3.26723e-015 -90 -90   XYZ
    dof rx
    limits (0.0 90.0)
  end
  begin
     id 30
     name rthumb
     direction -0.707107 -6.34857e-011 0.707107   
     length 0.888997   
     axis -90 -45 2.25915e-014   XYZ
    dof rx rz
    limits (-45.0 45.0)
           (-45.0 45.0)
  end
:hierarchy
  begin
    root lhipjoint rhipjoint lowerback
    lhipjoint lfemur
    lfemur ltibia
    ltibia lfoot
    lfoot ltoes
    rhipjoint rfemur
    rfemur rtibia
    rtibia rfoot
    rfoot rtoes
    lowerback upperback
    upperback thorax
    thorax lowerneck lclavicle rclavicle
    lowerneck upperneck
    upperneck head
    lclavicle lhumerus
    lhumerus lradius
    lradius lwrist
    lwrist lhand lthumb
    lhand lfingers
    rclavicle rhumerus
    rhumerus rradius
    rradius rwrist
    rwrist rhand rthumb
    rhand rfingers
  end

#!OML:ASF F:\VICON\USERDATA\INSTALL\rory3\rory3.ASF
:FULLY-SPECIFIED
:DEGREES
1280
root -0.171541 16.5804 -0.473743 -4.48537 -7.79293 -3.68886
lowerback 5.15082 -1.56644 -2.95682
upperback 8.06567 -2.07664 -2.08194
thorax 5.52423 -1.14872 -0.509911
lowerneck 7.66718 -12.6909 -26.968
upperneck -13.0299 -18.2154 23.1571
head -0.215955 -9.32383 11.3463
rclavicle -2.46493e-014 -1.59028e-014
rhumerus -2.02523 14.1417 -89.5711
rradius 141.26
rwrist 24.3189
rhand 31.9585 8.83635
rfingers 7.12502
rthumb 55.4586 -8.96531
lclavicle -2.46493e-014 -1.59028e-014
lhumerus 0.939593 -9.22249 95.7359
lradius 138.972
lwrist -13.3563
lhand 26.2573 40.2223
lfingers 7.12502
lthumb 50.3129 61.2792
rfemur -7.48655 6.67349 23.3202
rtibia 36.902
rfoot -26.3442 -2.96671
rtoes -19.2041
lfemur -8.24852 -3.09208 -13.5947
ltibia 41.9369
lfoot -26.4345 5.04903
ltoes -16.8031
1281
root -0.168874 16.5793 -0.4762 -4.51939 -7.99384 -3.75137
lowerback 5.19195 -1.54967 -2.92715
upperback 8.05118 -2.05756 -2.05942
thorax 5.48465 -1.1382 -0.501164
lowerneck 7.74591 -12.699 -27.0361
upperneck -13.0376 -18.2516 23.2051
head -0.209752 -9.34579 11.3737
rclavicle -7.55382e-015 1.11319e-014
rhumerus -1.97808 14.785 -89.5868
rradius 141.275
rwrist 23.8017
rhand 31.8443 8.68778
rfingers 7.12502
rthumb 55.357 -9.1895
lclavicle -7.55382e-015 1.11319e-014
lhumerus 0.687774 -8.81165 95.7064
lradius 138.919
lwrist -13.659
lhand 25.4172 40.0613
lfingers 7.12502
lthumb 49.5439 61.5203
rfemur -7.52822 6.64266 23.3684
rtibia 36.9635
rfoot -26.4718 -2.82407
rtoes -19.8626
lfemur -8.1724 -2.9777 -13.5371
ltibia 41.9793
lfoot -26.4839 5.20669
ltoes -17.1176
1282
root -0.167317 16.5777 -0.479004 -4.57067 -8.195 -3.64534
lowerback 5.21118 -1.46801 -3.00529
upperback 8.0486 -1.94871 -2.12047
thorax 5.47058 -1.08634 -0.520604
lowerneck 7.91801 -12.7475 -26.9467
upperneck -13.1754 -18.3388 23.2476
head -0.257788 -9.40125 11.3855
rclavicle -1.47101e-014 -3.33958e-014
rhumerus -1.99995 15.0956 -89.6645
rradius 141.336
rwrist 23.1522
rhand 32.1174 8.69628
rfingers 7.12502
rthumb 55.5998 -8.99944
lclavicle -1.47101e-014 -3.33958e-014
lhumerus 0.500306 -8.53614 95.6254
lradius 138.91
lwrist -13.95
lhand 24.8241 40.0508
lfingers 7.12502
lthumb 48.9996 61.7834
rfemur -7.5835 6.65212 23.2371
rtibia 37.0321
rfoot -26.5776 -2.70836
rtoes -18.6819
lfemur -8.09286 -2.8471 -13.6587
ltibia 42.0107
lfoot -26.5104 5.29894
ltoes -17.0897
1283
root -0.166137 16.5757 -0.483 -4.57717 -8.39374 -3.58792
lowerback 5.21043 -1.36613 -3.00633
upperback 8.05845 -1.81034 -2.18495
thorax 5.47748 -1.01548 -0.587563
lowerneck 8.03766 -12.8299 -26.8007
upperneck -13.3268 -18.4496 23.3291
head -0.29502 -9.47105 11.3943
rclavicle 2.0276e-014 2.22639e-014
rhumerus -2.02639 15.2853 -89.7671
rradius 141.399
rwrist 22.6748
rhand 32.4277 8.79996
rfingers 7.12502
rthumb 55.8753 -8.68607
lclavicle 2.0276e-014 2.22639e-014
lhumerus 0.359023 -8.31133 95.5275
lradius 138.908
lwrist -14.3231
lhand 24.4971 40.1059
lfingers 7.12502
lthumb 48.6991 61.9858
rfemur -7.66287 6.69006 23.1554
rtibia 37.104
rfoot -26.5998 -2.57258
rtoes -19.0653
lfemur -8.09223 -2.73844 -13.7204
ltibia 42.049
lfoot -26.5219 5.33566
ltoes -16.9738
1284
root -0.162193 16.5738 -0.485908 -4.60011 -8.58897 -3.48403
lowerback 5.26812 -1.34203 -3.14273
upperback 8.06668 -1.78386 -2.16957
thorax 5.45914 -1.0107 -0.494328
lowerneck 7.88027 -12.8813 -26.8947
upperneck -13.322 -18.4873 23.4252
head -0.237136 -9.48504 11.4173
rclavicle -7.55382e-015 3.18055e-014
rhumerus -1.99165 15.8119 -89.7355
rradius 141.412
rwrist 22.3599
rhand 32.5807 8.70627
rfingers 7.12502
rthumb 56.011 -8.67497
lclavicle -7.55382e-015 3.18055e-014
lhumerus 0.250355 -7.8521 95.5045
lradius 138.895
lwrist -14.7209
lhand 24.1039 39.9913
lfingers 7.12502
lthumb 48.3372 62.0452
rfemur -7.72868 6.67871 23.0043
rtibia 37.1722
rfoot -26.6867 -2.33727
rtoes -20.2704
lfemur -8.06106 -2.68213 -13.8601
ltibia 42.0904
lfoot -26.5235 5.45422
ltoes -17.1909
1285
root -0.157276 16.5719 -0.487237 -4.54742 -8.74919 -3.48219
lowerback 5.26215 -1.35962 -3.20436
upperback 8.06843 -1.81194 -2.07933
thorax 5.47011 -1.03151 -0.366518
lowerneck 7.70984 -12.9312 -27.0878
upperneck -13.3729 -18.5245 23.5469
head -0.180704 -9.49423 11.4644
rclavicle 5.52621e-014 3.18055e-014
rhumerus -1.95484 16.461 -89.6251
rradius 141.436
rwrist 22.2165
rhand 32.7125 8.48648
rfingers 7.12502
rthumb 56.1277 -8.80382
lclavicle 5.52621e-014 3.18055e-014
lhumerus 0.103637 -7.32052 95.5018
lradius 138.861
lwrist -15.1678
lhand 23.5926 39.5508
lfingers 7.12502
lthumb 47.866 61.8259
rfemur -7.83978 6.67103 22.9557
rtibia 37.2222
rfoot -26.784 -2.06425
rtoes -20.8304
lfemur -8.10992 -2.63072 -13.8832
ltibia 42.15
lfoot -26.5404 5.56581
ltoes -17.4372
1286
root -0.153469 16.5705 -0.488676 -4.52086 -8.91846 -3.58402
lowerback 5.27634 -1.31738 -3.11288
upperback 8.05614 -1.75819 -2.01291
thorax 5.44629 -1.00161 -0.347682
lowerneck 7.78455 -12.9721 -27.1566
upperneck -13.5135 -18.5894 23.6866
head -0.191174 -9.53373 11.5242
rclavicle 1.55052e-014 2.70347e-014
rhumerus -2.04546 16.8073 -89.6006
rradius 141.428
rwrist 22.2901
rhand 32.8444 8.49434
rfingers 7.12502
rthumb 56.2444 -8.70426
lclavicle 1.55052e-014 2.70347e-014
lhumerus -0.0708534 -6.96763 95.4723
lradius 138.859
lwrist -15.4884
lhand 23.4028 39.3776
lfingers 7.12502
lthumb 47.6909 61.7334
rfemur -7.89842 6.68657 23.0421
rtibia 37.2618
rfoot -26.7649 -1.94836
rtoes -20.8393
lfemur -8.12716 -2.53521 -13.7765
ltibia 42.2153
lfoot -26.6366 5.52076
ltoes -16.8324
1287
root -0.151176 16.5686 -0.490514 -4.49886 -9.0267 -3.64695
lowerback 5.27192 -1.23305 -3.04921
upperback 8.02543 -1.64656 -1.98236
thorax 5.41227 -0.942777 -0.35089
lowerneck 7.98017 -13.0202 -27.1147
upperneck -13.6682 -18.6818 23.8188
head -0.229368 -9.59692 11.5741
rclavicle -5.1684e-015 -7.95139e-015
rhumerus -2.26378 16.9064 -89.634
rradius 141.34
rwrist 22.4598
rhand 32.698 8.65557
rfingers 7.12502
rthumb 56.1148 -8.64476
lclavicle -5.1684e-015 -7.95139e-015
lhumerus -0.272673 -6.8902 95.3792
lradius 138.881
lwrist -15.6928
lhand 23.3811 39.4179
lfingers 7.12502
lthumb 47.6708 61.7829
rfemur -7.9259 6.71518 23.0925
rtibia 37.3033
rfoot -26.6341 -1.93756
rtoes -20.7655
lfemur -8.1492 -2.48898 -13.7194
ltibia 42.2762
lfoot -26.7554 5.46979
ltoes -16.0819
1288
root -0.14855 16.5645 -0.492154 -4.48956 -9.07308 -3.64017
lowerback 5.24972 -1.15371 -3.06164
upperback 8.01898 -1.54078 -1.96099
thorax 5.41696 -0.891284 -0.322469
lowerneck 8.03584 -13.0816 -27.0793
upperneck -13.7176 -18.7679 23.9061
head -0.222044 -9.6492 11.5918
rclavicle 8.74653e-015 -1.59028e-015
rhumerus -2.47158 16.901 -89.6544
rradius 141.278
rwrist 22.5751
rhand 32.5587 8.62152
rfingers 7.12502
rthumb 55.9915 -8.77484
lclavicle 8.74653e-015 -1.59028e-015
lhumerus -0.433691 -6.92478 95.299
lradius 138.854
lwrist -15.9343
lhand 22.9755 39.2077
lfingers 7.12502
lthumb 47.2962 61.7423
rfemur -7.91817 6.68605 23.0521
rtibia 37.3529
rfoot -26.4875 -1.84716
rtoes -20.6216
lfemur -8.17127 -2.47067 -13.7388
ltibia 42.3203
lfoot -26.7492 5.77291
ltoes -17.394
1289
root -0.147181 16.5608 -0.493695 -4.46728 -9.11957 -3.6413
lowerback 5.22301 -1.10646 -3.12141
upperback 8.02239 -1.47927 -1.90976
thorax 5.43787 -0.865797 -0.236898
lowerneck 8.02821 -13.1261 -27.0391
upperneck -13.7997 -18.8137 23.9351
head -0.232269 -9.67388 11.5921
rclavicle 3.69739e-014 3.18055e-015
rhumerus -2.6119 16.9017 -89.6513
rradius 141.224
rwrist 22.6325
rhand 32.6754 8.42149
rfingers 7.12502
rthumb 56.0948 -8.8945
lclavicle 3.69739e-014 3.18055e-015
lhumerus -0.578799 -6.86905 95.1909
lradius 138.827
lwrist -16.1503
lhand 22.7267 39.1227
lfingers 7.12502
lthumb 47.0662 61.7597
rfemur -7.95637 6.68123 23.0339
rtibia 37.4146
rfoot -26.4388 -1.82016
rtoes -20.1955
lfemur -8.19489 -2.48016 -13.7461
ltibia 42.3308
lfoot -26.7627 5.91486
ltoes -18.0623
1290
root -0.146394 16.5597 -0.494991 -4.44935 -9.09098 -3.6061
lowerback 5.17996 -1.07226 -3.20211
upperback 8.08952 -1.43239 -1.87012
thorax 5.53688 -0.849719 -0.153618
lowerneck 7.90576 -13.2158 -27.0429
upperneck -13.8935 -18.894 24.0234
head -0.206117 -9.71228 11.6014
rclavicle -4.92986e-014 -3.33958e-014
rhumerus -2.59995 16.8447 -89.6016
rradius 141.062
rwrist 22.7341
rhand 32.7684 8.3939
rfingers 7.12502
rthumb 56.1771 -8.85764
lclavicle -4.92986e-014 -3.33958e-014
lhumerus -0.592722 -6.8721 95.0846
lradius 138.811
lwrist -16.1054
lhand 23.4858 39.5215
lfingers 7.12502
lthumb 47.7674 61.8421
rfemur -8.00897 6.63795 22.9812
rtibia 37.4655
rfoot -26.4663 -1.78761
rtoes -19.4714
lfemur -8.21444 -2.54026 -13.7963
ltibia 42.3022
lfoot -26.7861 5.61446
ltoes -16.487
1291
root -0.146067 16.5616 -0.496373 -4.43728 -9.04593 -3.54073
lowerback 5.12299 -1.02468 -3.30439
upperback 8.22512 -1.36468 -1.84525
thorax 5.71712 -0.825629 -0.0755157
lowerneck 7.62945 -13.3617 -26.9764
upperneck -14.0004 -19.0041 24.0955
head -0.159908 -9.76012 11.576
rclavicle -3.89618e-014 -1.43125e-014
rhumerus -2.48049 16.7218 -89.5397
rradius 140.918
rwrist 22.8615
rhand 32.8769 8.47045
rfingers 7.12502
rthumb 56.2731 -8.70547
lclavicle -3.89618e-014 -1.43125e-014
lhumerus -0.409769 -7.02556 94.9669
lradius 138.787
lwrist -15.8874
lhand 24.09 39.8289
lfingers 7.12502
lthumb 48.3244 61.8889
rfemur -8.0862 6.58139 22.9061
rtibia 37.4874
rfoot -26.5768 -1.8145
rtoes -19.4826
lfemur -8.23618 -2.54727 -13.8694
ltibia 42.253
lfoot -26.7746 5.41516
ltoes -15.5263
